# xmcd
#
# Track frame offsets:
#	150
#	23597
#	43877
#	63210
#	80945
#	96192
#	112732
#	134282
#	152847
#	176232
#	196534
#	215892
#	233617
#	248867
#	265447
#	286909
#
# Disc length: 4072 seconds
#
# Revision: 1
# Processed by: cddbd v1.5.1PL2 Copyright (c) Steve Scherf et al.
# Submitted via: audiograbber 1.83.01
#
DISCID=e10fe610
DTITLE=Sound Choice - sc2340
DYEAR=1900
DGENRE=Karaoke Country
TTITLE0=Jackson, Alan - Where Were You When The World Stopped Turning
TTITLE1=Ball, David - Riding With Private Malone
TTITLE2=Brooks and Dunn - Only In America
TTITLE3=Rogers, Kenny - Homeland
TTITLE4=McEntire, Reba - I'm A Survivor
TTITLE5=Charlie Daniels Band - This Ain't No Rag, It's A Flag
TTITLE6=Dixie Chicks - Travelin' Soldier (Live)
TTITLE7=Tippin, Aaron - Where The Stars And Stripes And The Eagle Fly
TTITLE8=Jackson, Alan - Where Were You When The World Stopped Turning (Vocal)
TTITLE9=Ball, David - Riding With Private Malone (Vocal)
TTITLE10=Brooks and Dunn - Only In America (Vocal)
TTITLE11=Rogers, Kenny - Homeland (Vocal)
TTITLE12=McEntire, Reba - I'm A Survivor (Vocal)
TTITLE13=Charlie Daniels Band - This Ain't No Rag It's A Flag (Vocal)
TTITLE14=Dixie Chicks - Travelin' Soldier (Live) (Vocal)
TTITLE15=Tippin, Aaron - Where The Stars And Stripes And The Eagle Fly
EXTD=
EXTT0=
EXTT1=
EXTT2=
EXTT3=
EXTT4=
EXTT5=
EXTT6=
EXTT7=
EXTT8=
EXTT9=
EXTT10=
EXTT11=
EXTT12=
EXTT13=
EXTT14=
EXTT15=
PLAYORDER=
